<svg width="2055" height="1334" xmlns="http://www.w3.org/2000/svg" xmlns:xlink="http://www.w3.org/1999/xlink" overflow="hidden"><defs><clipPath id="clip0"><rect x="1859" y="1349" width="2055" height="1334"/></clipPath><clipPath id="clip1"><rect x="1859" y="1350" width="2052" height="1331"/></clipPath><clipPath id="clip2"><rect x="2129" y="1520" width="1735" height="883"/></clipPath><clipPath id="clip3"><rect x="2129" y="1520" width="1735" height="883"/></clipPath><clipPath id="clip4"><rect x="2129" y="1520" width="1735" height="883"/></clipPath><clipPath id="clip5"><rect x="2129" y="1520" width="1735" height="883"/></clipPath><clipPath id="clip6"><rect x="2129" y="1520" width="1735" height="883"/></clipPath><clipPath id="clip7"><rect x="2129" y="1520" width="1735" height="883"/></clipPath><clipPath id="clip8"><rect x="1859" y="1350" width="2052" height="1331"/></clipPath><clipPath id="clip9"><rect x="1859" y="1350" width="2052" height="1331"/></clipPath><clipPath id="clip10"><rect x="1859" y="1350" width="2052" height="1331"/></clipPath><clipPath id="clip11"><rect x="1859" y="1350" width="2052" height="1331"/></clipPath><clipPath id="clip12"><rect x="1859" y="1350" width="2052" height="1331"/></clipPath><clipPath id="clip13"><rect x="1859" y="1350" width="2052" height="1331"/></clipPath><clipPath id="clip14"><rect x="1859" y="1350" width="2052" height="1331"/></clipPath><clipPath id="clip15"><rect x="1859" y="1350" width="2052" height="1331"/></clipPath><clipPath id="clip16"><rect x="1859" y="1350" width="2052" height="1331"/></clipPath><clipPath id="clip17"><rect x="1859" y="1350" width="2052" height="1331"/></clipPath><clipPath id="clip18"><rect x="1859" y="1350" width="2052" height="1331"/></clipPath><clipPath id="clip19"><rect x="1859" y="1350" width="2052" height="1331"/></clipPath><clipPath id="clip20"><rect x="1859" y="1350" width="2052" height="1331"/></clipPath><clipPath id="clip21"><rect x="1859" y="1350" width="2052" height="1331"/></clipPath><clipPath id="clip22"><rect x="1859" y="1350" width="2052" height="1331"/></clipPath><clipPath id="clip23"><rect x="1859" y="1350" width="2052" height="1331"/></clipPath><clipPath id="clip24"><rect x="1859" y="1350" width="2052" height="1331"/></clipPath><clipPath id="clip25"><rect x="1859" y="1350" width="2052" height="1331"/></clipPath><clipPath id="clip26"><rect x="1859" y="1350" width="2052" height="1331"/></clipPath><clipPath id="clip27"><rect x="1859" y="1350" width="2052" height="1331"/></clipPath><clipPath id="clip28"><rect x="1859" y="1350" width="2052" height="1331"/></clipPath><clipPath id="clip29"><rect x="1859" y="1350" width="2052" height="1331"/></clipPath><clipPath id="clip30"><rect x="1859" y="1350" width="2052" height="1331"/></clipPath><clipPath id="clip31"><rect x="1859" y="1350" width="2052" height="1331"/></clipPath><clipPath id="clip32"><rect x="1859" y="1350" width="2052" height="1331"/></clipPath><clipPath id="clip33"><rect x="1859" y="1350" width="2052" height="1331"/></clipPath><clipPath id="clip34"><rect x="1859" y="1350" width="2052" height="1331"/></clipPath><clipPath id="clip35"><rect x="1859" y="1350" width="2052" height="1331"/></clipPath><clipPath id="clip36"><rect x="1859" y="1350" width="2052" height="1331"/></clipPath><clipPath id="clip37"><rect x="1859" y="1350" width="2052" height="1331"/></clipPath><clipPath id="clip38"><rect x="1859" y="1350" width="2052" height="1331"/></clipPath></defs><g clip-path="url(#clip0)" transform="translate(-1859 -1349)"><rect x="1860" y="1350" width="2052" height="1331" fill="#FFFFFF"/><g clip-path="url(#clip1)"><path d="M2129.5 2301.58 3861.5 2301.58M2129.5 2204.57 3861.5 2204.57M2129.5 2106.57 3861.5 2106.57M2129.5 2008.57 3861.5 2008.57M2129.5 1911.56 3861.5 1911.56M2129.5 1813.56 3861.5 1813.56M2129.5 1715.56 3861.5 1715.56M2129.5 1618.55 3861.5 1618.55M2129.5 1520.5 3861.5 1520.5" stroke="#D9D9D9" stroke-width="3.4375" stroke-linejoin="round" stroke-miterlimit="10" fill="none"/></g><g clip-path="url(#clip2)"><path d="M2179.07 2375.08 2224.07 2375.08 2224.07 2400 2179.07 2400ZM2612.09 2372.08 2657.09 2372.08 2657.09 2400 2612.09 2400ZM3045.1 2374.08 3090.1 2374.08 3090.1 2400 3045.1 2400ZM3478.11 2374.08 3523.12 2374.08 3523.12 2400 3478.11 2400Z" fill="#4472C4"/></g><g clip-path="url(#clip3)"><path d="M2237.07 2357.08 2282.07 2357.08 2282.07 2400 2237.07 2400ZM2670.09 2354.08 2715.09 2354.08 2715.09 2400 2670.09 2400ZM3103.1 2355.08 3148.1 2355.08 3148.1 2400 3103.1 2400ZM3536.12 2355.08 3581.12 2355.08 3581.12 2400 3536.12 2400Z" fill="#ED7D31"/></g><g clip-path="url(#clip4)"><path d="M2294.08 2320.08 2340.08 2320.08 2340.08 2400 2294.08 2400ZM2727.09 2313.08 2773.09 2313.08 2773.09 2400 2727.09 2400ZM3160.1 2317.08 3206.1 2317.08 3206.1 2400 3160.1 2400ZM3593.12 2317.08 3639.12 2317.08 3639.12 2400 3593.12 2400Z" fill="#A5A5A5"/></g><g clip-path="url(#clip5)"><path d="M2352.08 2235.07 2397.08 2235.07 2397.08 2400 2352.08 2400ZM2785.09 2228.07 2830.09 2228.07 2830.09 2400 2785.09 2400ZM3218.11 2233.07 3263.11 2233.07 3263.11 2400 3218.11 2400ZM3651.12 2234.07 3696.12 2234.07 3696.12 2400 3651.12 2400Z" fill="#FFC000"/></g><g clip-path="url(#clip6)"><path d="M2410.08 2061.07 2455.08 2061.07 2455.08 2400 2410.08 2400ZM2843.09 2052.07 2888.09 2052.07 2888.09 2400 2843.09 2400ZM3276.11 2058.07 3321.11 2058.07 3321.11 2400 3276.11 2400ZM3709.12 2059.07 3754.12 2059.07 3754.12 2400 3709.12 2400Z" fill="#5B9BD5"/></g><g clip-path="url(#clip7)"><path d="M2467.08 1671.05 2513.08 1671.05 2513.08 2400 2467.08 2400ZM2900.09 1645.05 2946.1 1645.05 2946.1 2400 2900.09 2400ZM3333.11 1660.05 3379.11 1660.05 3379.11 2400 3333.11 2400ZM3766.12 1659.05 3812.12 1659.05 3812.12 2400 3766.12 2400Z" fill="#70AD47"/></g><g clip-path="url(#clip8)"><path d="M2129.5 2399.5 3861.5 2399.5" stroke="#D9D9D9" stroke-width="3.4375" stroke-linejoin="round" stroke-miterlimit="10" fill="none" fill-rule="evenodd"/></g><g clip-path="url(#clip9)"><text fill="#595959" font-family="Calibri,Calibri_MSFontService,sans-serif" font-weight="400" font-size="41" transform="matrix(1 0 0 1 2070.27 2411)">0</text></g><g clip-path="url(#clip10)"><text fill="#595959" font-family="Calibri,Calibri_MSFontService,sans-serif" font-weight="400" font-size="41" transform="matrix(1 0 0 1 2007.57 2313)">5000</text></g><g clip-path="url(#clip11)"><text fill="#595959" font-family="Calibri,Calibri_MSFontService,sans-serif" font-weight="400" font-size="41" transform="matrix(1 0 0 1 1986.67 2216)">10000</text></g><g clip-path="url(#clip12)"><text fill="#595959" font-family="Calibri,Calibri_MSFontService,sans-serif" font-weight="400" font-size="41" transform="matrix(1 0 0 1 1986.67 2118)">15000</text></g><g clip-path="url(#clip13)"><text fill="#595959" font-family="Calibri,Calibri_MSFontService,sans-serif" font-weight="400" font-size="41" transform="matrix(1 0 0 1 1986.67 2020)">20000</text></g><g clip-path="url(#clip14)"><text fill="#595959" font-family="Calibri,Calibri_MSFontService,sans-serif" font-weight="400" font-size="41" transform="matrix(1 0 0 1 1986.67 1923)">25000</text></g><g clip-path="url(#clip15)"><text fill="#595959" font-family="Calibri,Calibri_MSFontService,sans-serif" font-weight="400" font-size="41" transform="matrix(1 0 0 1 1986.67 1825)">30000</text></g><g clip-path="url(#clip16)"><text fill="#595959" font-family="Calibri,Calibri_MSFontService,sans-serif" font-weight="400" font-size="41" transform="matrix(1 0 0 1 1986.67 1727)">35000</text></g><g clip-path="url(#clip17)"><text fill="#595959" font-family="Calibri,Calibri_MSFontService,sans-serif" font-weight="400" font-size="41" transform="matrix(1 0 0 1 1986.67 1630)">40000</text></g><g clip-path="url(#clip18)"><text fill="#595959" font-family="Calibri,Calibri_MSFontService,sans-serif" font-weight="400" font-size="41" transform="matrix(1 0 0 1 1986.67 1532)">45000</text></g><g clip-path="url(#clip19)"><text fill="#595959" font-family="Calibri,Calibri_MSFontService,sans-serif" font-weight="400" font-size="41" transform="matrix(1 0 0 1 2312.73 2465)">Min</text></g><g clip-path="url(#clip20)"><text fill="#595959" font-family="Calibri,Calibri_MSFontService,sans-serif" font-weight="400" font-size="41" transform="matrix(1 0 0 1 2742.49 2465)">Max</text></g><g clip-path="url(#clip21)"><text fill="#595959" font-family="Calibri,Calibri_MSFontService,sans-serif" font-weight="400" font-size="41" transform="matrix(1 0 0 1 3163.33 2465)">Mean</text></g><g clip-path="url(#clip22)"><text fill="#595959" font-family="Calibri,Calibri_MSFontService,sans-serif" font-weight="400" font-size="41" transform="matrix(1 0 0 1 3580.77 2465)">Median</text></g><g clip-path="url(#clip23)"><text fill="#595959" font-family="Calibri,Calibri_MSFontService,sans-serif" font-weight="400" font-size="46" transform="matrix(6.12323e-17 -1 1 6.12323e-17 1960.98 2155)">Response time in MS</text></g><g clip-path="url(#clip24)"><text fill="#595959" font-family="Calibri,Calibri_MSFontService,sans-serif" font-weight="400" font-size="64" transform="matrix(1 0 0 1 2269.78 1446)">Response times by Datainput </text></g><g clip-path="url(#clip25)"><text fill="#595959" font-family="Calibri,Calibri_MSFontService,sans-serif" font-weight="400" font-size="64" transform="matrix(1 0 0 1 3042.19 1446)">-</text></g><g clip-path="url(#clip26)"><text fill="#595959" font-family="Calibri,Calibri_MSFontService,sans-serif" font-weight="400" font-size="64" transform="matrix(1 0 0 1 3076.33 1446)">256MB Memory</text></g><g clip-path="url(#clip27)"><rect x="2290" y="2533" width="23" height="23" fill="#4472C4"/></g><g clip-path="url(#clip28)"><text fill="#595959" font-family="Calibri,Calibri_MSFontService,sans-serif" font-weight="400" font-size="41" transform="matrix(1 0 0 1 2322.13 2556)">Response time - 100</text></g><g clip-path="url(#clip29)"><rect x="2697" y="2533" width="23" height="23" fill="#ED7D31"/></g><g clip-path="url(#clip30)"><text fill="#595959" font-family="Calibri,Calibri_MSFontService,sans-serif" font-weight="400" font-size="41" transform="matrix(1 0 0 1 2729.25 2556)">Response time - 200</text></g><g clip-path="url(#clip31)"><rect x="3104" y="2533" width="23" height="23" fill="#A5A5A5"/></g><g clip-path="url(#clip32)"><text fill="#595959" font-family="Calibri,Calibri_MSFontService,sans-serif" font-weight="400" font-size="41" transform="matrix(1 0 0 1 3136.37 2556)">Response time - 400</text></g><g clip-path="url(#clip33)"><rect x="2290" y="2611" width="23" height="22" fill="#FFC000"/></g><g clip-path="url(#clip34)"><text fill="#595959" font-family="Calibri,Calibri_MSFontService,sans-serif" font-weight="400" font-size="41" transform="matrix(1 0 0 1 2322.13 2634)">Response - time 800</text></g><g clip-path="url(#clip35)"><rect x="2697" y="2611" width="23" height="22" fill="#5B9BD5"/></g><g clip-path="url(#clip36)"><text fill="#595959" font-family="Calibri,Calibri_MSFontService,sans-serif" font-weight="400" font-size="41" transform="matrix(1 0 0 1 2729.25 2634)">Response time - 1600</text></g><g clip-path="url(#clip37)"><rect x="3104" y="2611" width="23" height="22" fill="#70AD47"/></g><g clip-path="url(#clip38)"><text fill="#595959" font-family="Calibri,Calibri_MSFontService,sans-serif" font-weight="400" font-size="41" transform="matrix(1 0 0 1 3136.37 2634)">Response time - 3200</text></g><rect x="1860.5" y="1350.5" width="2052" height="1331" stroke="#D9D9D9" stroke-width="3.4375" stroke-linejoin="round" stroke-miterlimit="10" fill="none"/></g></svg>