<svg width="2054" height="1332" xmlns="http://www.w3.org/2000/svg" xmlns:xlink="http://www.w3.org/1999/xlink" overflow="hidden"><defs><clipPath id="clip0"><rect x="1670" y="1426" width="2054" height="1332"/></clipPath><clipPath id="clip1"><rect x="1670" y="1426" width="2051" height="1330"/></clipPath><clipPath id="clip2"><rect x="1919" y="1596" width="1755" height="882"/></clipPath><clipPath id="clip3"><rect x="1919" y="1596" width="1755" height="882"/></clipPath><clipPath id="clip4"><rect x="1919" y="1596" width="1755" height="882"/></clipPath><clipPath id="clip5"><rect x="1919" y="1596" width="1755" height="882"/></clipPath><clipPath id="clip6"><rect x="1919" y="1596" width="1755" height="882"/></clipPath><clipPath id="clip7"><rect x="1919" y="1596" width="1755" height="882"/></clipPath><clipPath id="clip8"><rect x="1670" y="1426" width="2051" height="1330"/></clipPath><clipPath id="clip9"><rect x="1670" y="1426" width="2051" height="1330"/></clipPath><clipPath id="clip10"><rect x="1670" y="1426" width="2051" height="1330"/></clipPath><clipPath id="clip11"><rect x="1670" y="1426" width="2051" height="1330"/></clipPath><clipPath id="clip12"><rect x="1670" y="1426" width="2051" height="1330"/></clipPath><clipPath id="clip13"><rect x="1670" y="1426" width="2051" height="1330"/></clipPath><clipPath id="clip14"><rect x="1670" y="1426" width="2051" height="1330"/></clipPath><clipPath id="clip15"><rect x="1670" y="1426" width="2051" height="1330"/></clipPath><clipPath id="clip16"><rect x="1670" y="1426" width="2051" height="1330"/></clipPath><clipPath id="clip17"><rect x="1670" y="1426" width="2051" height="1330"/></clipPath><clipPath id="clip18"><rect x="1670" y="1426" width="2051" height="1330"/></clipPath><clipPath id="clip19"><rect x="1670" y="1426" width="2051" height="1330"/></clipPath><clipPath id="clip20"><rect x="1670" y="1426" width="2051" height="1330"/></clipPath><clipPath id="clip21"><rect x="1670" y="1426" width="2051" height="1330"/></clipPath><clipPath id="clip22"><rect x="1670" y="1426" width="2051" height="1330"/></clipPath><clipPath id="clip23"><rect x="1670" y="1426" width="2051" height="1330"/></clipPath><clipPath id="clip24"><rect x="1670" y="1426" width="2051" height="1330"/></clipPath><clipPath id="clip25"><rect x="1670" y="1426" width="2051" height="1330"/></clipPath><clipPath id="clip26"><rect x="1670" y="1426" width="2051" height="1330"/></clipPath><clipPath id="clip27"><rect x="1670" y="1426" width="2051" height="1330"/></clipPath><clipPath id="clip28"><rect x="1670" y="1426" width="2051" height="1330"/></clipPath><clipPath id="clip29"><rect x="1670" y="1426" width="2051" height="1330"/></clipPath><clipPath id="clip30"><rect x="1670" y="1426" width="2051" height="1330"/></clipPath><clipPath id="clip31"><rect x="1670" y="1426" width="2051" height="1330"/></clipPath><clipPath id="clip32"><rect x="1670" y="1426" width="2051" height="1330"/></clipPath><clipPath id="clip33"><rect x="1670" y="1426" width="2051" height="1330"/></clipPath><clipPath id="clip34"><rect x="1670" y="1426" width="2051" height="1330"/></clipPath><clipPath id="clip35"><rect x="1670" y="1426" width="2051" height="1330"/></clipPath><clipPath id="clip36"><rect x="1670" y="1426" width="2051" height="1330"/></clipPath><clipPath id="clip37"><rect x="1670" y="1426" width="2051" height="1330"/></clipPath><clipPath id="clip38"><rect x="1670" y="1426" width="2051" height="1330"/></clipPath></defs><g clip-path="url(#clip0)" transform="translate(-1670 -1426)"><rect x="1671" y="1427" width="2051" height="1329" fill="#FFFFFF"/><g clip-path="url(#clip1)"><path d="M1919.5 2377.58 3671.5 2377.58M1919.5 2279.57 3671.5 2279.57M1919.5 2181.57 3671.5 2181.57M1919.5 2084.57 3671.5 2084.57M1919.5 1986.57 3671.5 1986.57M1919.5 1889.56 3671.5 1889.56M1919.5 1791.56 3671.5 1791.56M1919.5 1694.56 3671.5 1694.56M1919.5 1596.5 3671.5 1596.5" stroke="#D9D9D9" stroke-width="3.4375" stroke-linejoin="round" stroke-miterlimit="10" fill="none"/></g><g clip-path="url(#clip2)"><path d="M1970.06 2442.08 2016.07 2442.08 2016.07 2475 1970.06 2475ZM2408.08 2431.08 2454.08 2431.08 2454.08 2475 2408.08 2475ZM2846.09 2440.08 2891.09 2440.08 2891.09 2475 2846.09 2475ZM3283.11 2441.08 3329.11 2441.08 3329.11 2475 3283.11 2475Z" fill="#4472C4"/></g><g clip-path="url(#clip3)"><path d="M2028.07 2425.08 2074.07 2425.08 2074.07 2475 2028.07 2475ZM2466.08 2422.08 2512.08 2422.08 2512.08 2475 2466.08 2475ZM2904.1 2424.08 2950.1 2424.08 2950.1 2475 2904.1 2475ZM3342.11 2424.08 3388.11 2424.08 3388.11 2475 3342.11 2475Z" fill="#ED7D31"/></g><g clip-path="url(#clip4)"><path d="M2086.07 2390.08 2132.07 2390.08 2132.07 2475 2086.07 2475ZM2524.08 2384.08 2570.08 2384.08 2570.08 2475 2524.08 2475ZM2962.1 2386.08 3008.1 2386.08 3008.1 2475 2962.1 2475ZM3400.11 2386.08 3446.11 2386.08 3446.11 2475 3400.11 2475Z" fill="#A5A5A5"/></g><g clip-path="url(#clip5)"><path d="M2145.07 2309.08 2190.07 2309.08 2190.07 2475 2145.07 2475ZM2583.08 2290.08 2628.09 2290.08 2628.09 2475 2583.08 2475ZM3020.1 2303.08 3066.1 2303.08 3066.1 2475 3020.1 2475ZM3458.11 2305.08 3504.11 2305.08 3504.11 2475 3458.11 2475Z" fill="#FFC000"/></g><g clip-path="url(#clip6)"><path d="M2203.07 2143.07 2249.07 2143.07 2249.07 2475 2203.07 2475ZM2641.09 2133.07 2687.09 2133.07 2687.09 2475 2641.09 2475ZM3079.1 2139.07 3125.1 2139.07 3125.1 2475 3079.1 2475ZM3517.12 2139.07 3563.12 2139.07 3563.12 2475 3517.12 2475Z" fill="#5B9BD5"/></g><g clip-path="url(#clip7)"><path d="M2261.07 1763.06 2307.08 1763.06 2307.08 2475 2261.07 2475ZM2699.09 1704.06 2745.09 1704.06 2745.09 2475 2699.09 2475ZM3137.1 1751.06 3183.1 1751.06 3183.1 2475 3137.1 2475ZM3575.12 1757.06 3621.12 1757.06 3621.12 2475 3575.12 2475Z" fill="#70AD47"/></g><g clip-path="url(#clip8)"><path d="M1919.5 2474.5 3671.5 2474.5" stroke="#D9D9D9" stroke-width="3.4375" stroke-linejoin="round" stroke-miterlimit="10" fill="none" fill-rule="evenodd"/></g><g clip-path="url(#clip9)"><text fill="#595959" font-family="Calibri,Calibri_MSFontService,sans-serif" font-weight="400" font-size="41" transform="matrix(1 0 0 1 1860.31 2486)">0</text></g><g clip-path="url(#clip10)"><text fill="#595959" font-family="Calibri,Calibri_MSFontService,sans-serif" font-weight="400" font-size="41" transform="matrix(1 0 0 1 1797.61 2389)">1000</text></g><g clip-path="url(#clip11)"><text fill="#595959" font-family="Calibri,Calibri_MSFontService,sans-serif" font-weight="400" font-size="41" transform="matrix(1 0 0 1 1797.61 2291)">2000</text></g><g clip-path="url(#clip12)"><text fill="#595959" font-family="Calibri,Calibri_MSFontService,sans-serif" font-weight="400" font-size="41" transform="matrix(1 0 0 1 1797.61 2194)">3000</text></g><g clip-path="url(#clip13)"><text fill="#595959" font-family="Calibri,Calibri_MSFontService,sans-serif" font-weight="400" font-size="41" transform="matrix(1 0 0 1 1797.61 2096)">4000</text></g><g clip-path="url(#clip14)"><text fill="#595959" font-family="Calibri,Calibri_MSFontService,sans-serif" font-weight="400" font-size="41" transform="matrix(1 0 0 1 1797.61 1998)">5000</text></g><g clip-path="url(#clip15)"><text fill="#595959" font-family="Calibri,Calibri_MSFontService,sans-serif" font-weight="400" font-size="41" transform="matrix(1 0 0 1 1797.61 1901)">6000</text></g><g clip-path="url(#clip16)"><text fill="#595959" font-family="Calibri,Calibri_MSFontService,sans-serif" font-weight="400" font-size="41" transform="matrix(1 0 0 1 1797.61 1803)">7000</text></g><g clip-path="url(#clip17)"><text fill="#595959" font-family="Calibri,Calibri_MSFontService,sans-serif" font-weight="400" font-size="41" transform="matrix(1 0 0 1 1797.61 1706)">8000</text></g><g clip-path="url(#clip18)"><text fill="#595959" font-family="Calibri,Calibri_MSFontService,sans-serif" font-weight="400" font-size="41" transform="matrix(1 0 0 1 1797.61 1608)">9000</text></g><g clip-path="url(#clip19)"><text fill="#595959" font-family="Calibri,Calibri_MSFontService,sans-serif" font-weight="400" font-size="41" transform="matrix(1 0 0 1 2105.24 2540)">Min</text></g><g clip-path="url(#clip20)"><text fill="#595959" font-family="Calibri,Calibri_MSFontService,sans-serif" font-weight="400" font-size="41" transform="matrix(1 0 0 1 2539.94 2540)">Max</text></g><g clip-path="url(#clip21)"><text fill="#595959" font-family="Calibri,Calibri_MSFontService,sans-serif" font-weight="400" font-size="41" transform="matrix(1 0 0 1 2965.72 2540)">Mean</text></g><g clip-path="url(#clip22)"><text fill="#595959" font-family="Calibri,Calibri_MSFontService,sans-serif" font-weight="400" font-size="41" transform="matrix(1 0 0 1 3388.09 2540)">Median</text></g><g clip-path="url(#clip23)"><text fill="#595959" font-family="Calibri,Calibri_MSFontService,sans-serif" font-weight="400" font-size="46" transform="matrix(6.12323e-17 -1 1 6.12323e-17 1771.92 2231)">Response time in MS</text></g><g clip-path="url(#clip24)"><text fill="#595959" font-family="Calibri,Calibri_MSFontService,sans-serif" font-weight="400" font-size="64" transform="matrix(1 0 0 1 2119.86 1522)">Response times by Datainput </text></g><g clip-path="url(#clip25)"><text fill="#595959" font-family="Calibri,Calibri_MSFontService,sans-serif" font-weight="400" font-size="64" transform="matrix(1 0 0 1 2892.27 1522)">-</text></g><g clip-path="url(#clip26)"><text fill="#595959" font-family="Calibri,Calibri_MSFontService,sans-serif" font-weight="400" font-size="64" transform="matrix(1 0 0 1 2926.41 1522)">4GB Memory</text></g><g clip-path="url(#clip27)"><rect x="2100" y="2608" width="23" height="23" fill="#4472C4"/></g><g clip-path="url(#clip28)"><text fill="#595959" font-family="Calibri,Calibri_MSFontService,sans-serif" font-weight="400" font-size="41" transform="matrix(1 0 0 1 2132.49 2631)">Response time - 100</text></g><g clip-path="url(#clip29)"><rect x="2507" y="2608" width="23" height="23" fill="#ED7D31"/></g><g clip-path="url(#clip30)"><text fill="#595959" font-family="Calibri,Calibri_MSFontService,sans-serif" font-weight="400" font-size="41" transform="matrix(1 0 0 1 2539.62 2631)">Response time - 200</text></g><g clip-path="url(#clip31)"><rect x="2914" y="2608" width="23" height="23" fill="#A5A5A5"/></g><g clip-path="url(#clip32)"><text fill="#595959" font-family="Calibri,Calibri_MSFontService,sans-serif" font-weight="400" font-size="41" transform="matrix(1 0 0 1 2946.74 2631)">Response time - 400</text></g><g clip-path="url(#clip33)"><rect x="2100" y="2686" width="23" height="22" fill="#FFC000"/></g><g clip-path="url(#clip34)"><text fill="#595959" font-family="Calibri,Calibri_MSFontService,sans-serif" font-weight="400" font-size="41" transform="matrix(1 0 0 1 2132.49 2709)">Response - time 800</text></g><g clip-path="url(#clip35)"><rect x="2507" y="2686" width="23" height="22" fill="#5B9BD5"/></g><g clip-path="url(#clip36)"><text fill="#595959" font-family="Calibri,Calibri_MSFontService,sans-serif" font-weight="400" font-size="41" transform="matrix(1 0 0 1 2539.62 2709)">Response time - 1600</text></g><g clip-path="url(#clip37)"><rect x="2914" y="2686" width="23" height="22" fill="#70AD47"/></g><g clip-path="url(#clip38)"><text fill="#595959" font-family="Calibri,Calibri_MSFontService,sans-serif" font-weight="400" font-size="41" transform="matrix(1 0 0 1 2946.74 2709)">Response time - 3200</text></g><rect x="1671.5" y="1427.5" width="2051" height="1329" stroke="#D9D9D9" stroke-width="3.4375" stroke-linejoin="round" stroke-miterlimit="10" fill="none"/></g></svg>