<svg width="2399" height="1541" xmlns="http://www.w3.org/2000/svg" xmlns:xlink="http://www.w3.org/1999/xlink" overflow="hidden"><defs><clipPath id="clip0"><rect x="3030" y="1970" width="2399" height="1541"/></clipPath><clipPath id="clip1"><rect x="3030" y="1970" width="2396" height="1538"/></clipPath><clipPath id="clip2"><rect x="3279" y="2021" width="2100" height="1112"/></clipPath><clipPath id="clip3"><rect x="3279" y="2021" width="2100" height="1112"/></clipPath><clipPath id="clip4"><rect x="3279" y="2021" width="2100" height="1112"/></clipPath><clipPath id="clip5"><rect x="3279" y="2021" width="2100" height="1112"/></clipPath><clipPath id="clip6"><rect x="3279" y="2021" width="2100" height="1112"/></clipPath><clipPath id="clip7"><rect x="3279" y="2021" width="2100" height="1112"/></clipPath><clipPath id="clip8"><rect x="3030" y="1970" width="2396" height="1538"/></clipPath><clipPath id="clip9"><rect x="3030" y="1970" width="2396" height="1538"/></clipPath><clipPath id="clip10"><rect x="3030" y="1970" width="2396" height="1538"/></clipPath><clipPath id="clip11"><rect x="3030" y="1970" width="2396" height="1538"/></clipPath><clipPath id="clip12"><rect x="3030" y="1970" width="2396" height="1538"/></clipPath><clipPath id="clip13"><rect x="3030" y="1970" width="2396" height="1538"/></clipPath><clipPath id="clip14"><rect x="3030" y="1970" width="2396" height="1538"/></clipPath><clipPath id="clip15"><rect x="3030" y="1970" width="2396" height="1538"/></clipPath><clipPath id="clip16"><rect x="3030" y="1970" width="2396" height="1538"/></clipPath><clipPath id="clip17"><rect x="3030" y="1970" width="2396" height="1538"/></clipPath><clipPath id="clip18"><rect x="3030" y="1970" width="2396" height="1538"/></clipPath><clipPath id="clip19"><rect x="3030" y="1970" width="2396" height="1538"/></clipPath><clipPath id="clip20"><rect x="3030" y="1970" width="2396" height="1538"/></clipPath><clipPath id="clip21"><rect x="3030" y="1970" width="2396" height="1538"/></clipPath><clipPath id="clip22"><rect x="3030" y="1970" width="2396" height="1538"/></clipPath><clipPath id="clip23"><rect x="3030" y="1970" width="2396" height="1538"/></clipPath><clipPath id="clip24"><rect x="3030" y="1970" width="2396" height="1538"/></clipPath><clipPath id="clip25"><rect x="3030" y="1970" width="2396" height="1538"/></clipPath><clipPath id="clip26"><rect x="3030" y="1970" width="2396" height="1538"/></clipPath><clipPath id="clip27"><rect x="3030" y="1970" width="2396" height="1538"/></clipPath><clipPath id="clip28"><rect x="3030" y="1970" width="2396" height="1538"/></clipPath><clipPath id="clip29"><rect x="3030" y="1970" width="2396" height="1538"/></clipPath><clipPath id="clip30"><rect x="3030" y="1970" width="2396" height="1538"/></clipPath><clipPath id="clip31"><rect x="3030" y="1970" width="2396" height="1538"/></clipPath><clipPath id="clip32"><rect x="3030" y="1970" width="2396" height="1538"/></clipPath><clipPath id="clip33"><rect x="3030" y="1970" width="2396" height="1538"/></clipPath></defs><g clip-path="url(#clip0)" transform="translate(-3030 -1970)"><rect x="3031" y="1971" width="2396" height="1538" fill="#FFFFFF"/><g clip-path="url(#clip1)"><path d="M3279.5 2944.6 5376.5 2944.6M3279.5 2760.59 5376.5 2760.59M3279.5 2575.58 5376.5 2575.58M3279.5 2390.58 5376.5 2390.58M3279.5 2205.57 5376.5 2205.57M3279.5 2021.5 5376.5 2021.5" stroke="#D9D9D9" stroke-width="3.4375" stroke-linejoin="round" stroke-miterlimit="10" fill="none"/></g><g clip-path="url(#clip2)"><path d="M3340.11 2353.08 3395.11 2353.08 3395.11 3130 3340.11 3130ZM3864.13 2169.07 3919.13 2169.07 3919.13 3130 3864.13 3130ZM4388.14 2294.08 4443.15 2294.08 4443.15 3130 4388.14 3130ZM4912.16 2285.07 4967.16 2285.07 4967.16 3130 4912.16 3130Z" fill="#70AD47"/></g><g clip-path="url(#clip3)"><path d="M3409.11 2744.09 3464.11 2744.09 3464.11 3130 3409.11 3130ZM3934.13 2100.07 3989.13 2100.07 3989.13 3130 3934.13 3130ZM4458.15 2715.09 4513.15 2715.09 4513.15 3130 4458.15 3130ZM4982.16 2723.09 5037.17 2723.09 5037.17 3130 4982.16 3130Z" fill="#4472C4"/></g><g clip-path="url(#clip4)"><path d="M3479.11 2897.09 3534.12 2897.09 3534.12 3130 3479.11 3130ZM4003.13 2740.09 4058.13 2740.09 4058.13 3130 4003.13 3130ZM4527.15 2883.09 4582.15 2883.09 4582.15 3130 4527.15 3130ZM5052.17 2885.09 5107.17 2885.09 5107.17 3130 5052.17 3130Z" fill="#ED7D31"/></g><g clip-path="url(#clip5)"><path d="M3549.12 2945.1 3604.12 2945.1 3604.12 3130 3549.12 3130ZM4073.13 2813.09 4128.14 2813.09 4128.14 3130 4073.13 3130ZM4597.15 2932.1 4652.15 2932.1 4652.15 3130 4597.15 3130ZM5121.17 2935.1 5176.17 2935.1 5176.17 3130 5121.17 3130Z" fill="#A5A5A5"/></g><g clip-path="url(#clip6)"><path d="M3619.12 2941.1 3674.12 2941.1 3674.12 3130 3619.12 3130ZM4143.14 2842.09 4198.14 2842.09 4198.14 3130 4143.14 3130ZM4667.15 2931.1 4722.15 2931.1 4722.15 3130 4667.15 3130ZM5191.17 2933.1 5246.17 2933.1 5246.17 3130 5191.17 3130Z" fill="#FFC000"/></g><g clip-path="url(#clip7)"><path d="M3689.12 2941.1 3743.12 2941.1 3743.12 3130 3689.12 3130ZM4213.14 2339.08 4268.14 2339.08 4268.14 3130 4213.14 3130ZM4737.16 2925.1 4792.16 2925.1 4792.16 3130 4737.16 3130ZM5261.17 2931.1 5316.17 2931.1 5316.17 3130 5261.17 3130Z" fill="#5B9BD5"/></g><g clip-path="url(#clip8)"><path d="M3279.5 3129.5 5376.5 3129.5" stroke="#D9D9D9" stroke-width="3.4375" stroke-linejoin="round" stroke-miterlimit="10" fill="none" fill-rule="evenodd"/></g><g clip-path="url(#clip9)"><text fill="#595959" font-family="Calibri,Calibri_MSFontService,sans-serif" font-weight="400" font-size="41" transform="matrix(1 0 0 1 3220.41 3141)">0</text></g><g clip-path="url(#clip10)"><text fill="#595959" font-family="Calibri,Calibri_MSFontService,sans-serif" font-weight="400" font-size="41" transform="matrix(1 0 0 1 3178.61 2957)">500</text></g><g clip-path="url(#clip11)"><text fill="#595959" font-family="Calibri,Calibri_MSFontService,sans-serif" font-weight="400" font-size="41" transform="matrix(1 0 0 1 3157.71 2772)">1000</text></g><g clip-path="url(#clip12)"><text fill="#595959" font-family="Calibri,Calibri_MSFontService,sans-serif" font-weight="400" font-size="41" transform="matrix(1 0 0 1 3157.71 2587)">1500</text></g><g clip-path="url(#clip13)"><text fill="#595959" font-family="Calibri,Calibri_MSFontService,sans-serif" font-weight="400" font-size="41" transform="matrix(1 0 0 1 3157.71 2402)">2000</text></g><g clip-path="url(#clip14)"><text fill="#595959" font-family="Calibri,Calibri_MSFontService,sans-serif" font-weight="400" font-size="41" transform="matrix(1 0 0 1 3157.71 2218)">2500</text></g><g clip-path="url(#clip15)"><text fill="#595959" font-family="Calibri,Calibri_MSFontService,sans-serif" font-weight="400" font-size="41" transform="matrix(1 0 0 1 3157.71 2033)">3000</text></g><g clip-path="url(#clip16)"><text fill="#595959" font-family="Calibri,Calibri_MSFontService,sans-serif" font-weight="400" font-size="41" transform="matrix(1 0 0 1 3508.45 3195)">Min</text></g><g clip-path="url(#clip17)"><text fill="#595959" font-family="Calibri,Calibri_MSFontService,sans-serif" font-weight="400" font-size="41" transform="matrix(1 0 0 1 4029.38 3195)">Max</text></g><g clip-path="url(#clip18)"><text fill="#595959" font-family="Calibri,Calibri_MSFontService,sans-serif" font-weight="400" font-size="41" transform="matrix(1 0 0 1 4541.38 3195)">Mean</text></g><g clip-path="url(#clip19)"><text fill="#595959" font-family="Calibri,Calibri_MSFontService,sans-serif" font-weight="400" font-size="41" transform="matrix(1 0 0 1 5049.98 3195)">Median</text></g><g clip-path="url(#clip20)"><text fill="#595959" font-family="Calibri,Calibri_MSFontService,sans-serif" font-weight="400" font-size="46" transform="matrix(6.12323e-17 -1 1 6.12323e-17 3132.02 2770)">Response time in MS</text></g><g clip-path="url(#clip21)"><text fill="#595959" font-family="Calibri,Calibri_MSFontService,sans-serif" font-weight="400" font-size="46" transform="matrix(1 0 0 1 4051.44 3264)">GCF with allocated ram in MB</text></g><g clip-path="url(#clip22)"><rect x="3508" y="3361" width="23" height="22" fill="#70AD47"/></g><g clip-path="url(#clip23)"><text fill="#595959" font-family="Calibri,Calibri_MSFontService,sans-serif" font-weight="400" font-size="41" transform="matrix(1 0 0 1 3540.3 3383)">Reponse times - 256 MB</text></g><g clip-path="url(#clip24)"><rect x="3998" y="3361" width="22.9998" height="22" fill="#4472C4"/></g><g clip-path="url(#clip25)"><text fill="#595959" font-family="Calibri,Calibri_MSFontService,sans-serif" font-weight="400" font-size="41" transform="matrix(1 0 0 1 4030.58 3383)">Response times - 512 MB</text></g><g clip-path="url(#clip26)"><rect x="4489" y="3361" width="22" height="22" fill="#ED7D31"/></g><g clip-path="url(#clip27)"><text fill="#595959" font-family="Calibri,Calibri_MSFontService,sans-serif" font-weight="400" font-size="41" transform="matrix(1 0 0 1 4520.87 3383)">Response times - 1024MB</text></g><g clip-path="url(#clip28)"><rect x="3508" y="3438" width="23" height="23" fill="#A5A5A5"/></g><g clip-path="url(#clip29)"><text fill="#595959" font-family="Calibri,Calibri_MSFontService,sans-serif" font-weight="400" font-size="41" transform="matrix(1 0 0 1 3540.3 3461)">Response times - 2048 MB</text></g><g clip-path="url(#clip30)"><rect x="3998" y="3438" width="22.9998" height="23" fill="#FFC000"/></g><g clip-path="url(#clip31)"><text fill="#595959" font-family="Calibri,Calibri_MSFontService,sans-serif" font-weight="400" font-size="41" transform="matrix(1 0 0 1 4030.58 3461)">Response times - 4096 MB</text></g><g clip-path="url(#clip32)"><rect x="4489" y="3438" width="22" height="23" fill="#5B9BD5"/></g><g clip-path="url(#clip33)"><text fill="#595959" font-family="Calibri,Calibri_MSFontService,sans-serif" font-weight="400" font-size="41" transform="matrix(1 0 0 1 4520.87 3461)">Response times - 8192 MB</text></g><rect x="3031.5" y="1971.5" width="2396" height="1538" stroke="#D9D9D9" stroke-width="3.4375" stroke-linejoin="round" stroke-miterlimit="10" fill="none"/></g></svg>