<!DOCTYPE svg PUBLIC "-//W3C//DTD SVG 1.1//EN" "https://www.w3.org/Graphics/SVG/1.1/DTD/svg11.dtd"><svg xmlns="http://www.w3.org/2000/svg" id="sfn-svg" class="sfn-workflow-graph" width="508" height="562">
    
    
<g transform="translate(12,19.625)"><g class="nodes"><g class="node-container" transform="translate(241.625,18.25)"><g class="node anchor"><circle class="shape" x="-15.875" y="-8.25" r="25.875"/><text class="label"><tspan xml:space="preserve" text-anchor="middle" alignment-baseline="central">Start</tspan></text></g></g><g class="node-container" transform="translate(241.625,507.4375)"><g class="node anchor"><circle class="shape" x="-12.1875" y="-8.25" r="22.1875"/><text class="label"><tspan xml:space="preserve" text-anchor="middle" alignment-baseline="central">End</tspan></text></g></g><g class="node-container" transform="translate(241.625,79.75)"><g class="node state Task Succeeded"><rect class="shape" rx="5" ry="5" x="-44.03125" y="-18.25" width="88.0625" height="36.5"/><text class="label"><tspan xml:space="preserve" text-anchor="middle" alignment-baseline="central">Fetch Data</tspan></text></g></g><g class="node-container" transform="translate(241.625,141.28125)"><g class="node state Task Succeeded"><rect class="shape" rx="5" ry="5" x="-99.671875" y="-18.28125" width="199.34375" height="36.5625"/><text class="label"><tspan xml:space="preserve" text-anchor="middle" alignment-baseline="central">Calculate User Rating Matrix</tspan></text></g></g><g class="node-container" transform="translate(241.625,232.84375)"><g class="node state Parallel Container Succeeded" transform="translate(-165.0625,-48.28125)"><rect class="shape" rx="19.3125" ry="19.3125" x="0" y="0" width="330.125" height="96.5625"/><g class="branches" transform="translate(20,40)"><g class="branch" transform="translate(0,0)"><g class="nodes"><g class="node-container" transform="translate(54.828125,18.25)"><g class="node state Pass Succeeded"><rect class="shape" rx="5" ry="5" x="-54.828125" y="-18.25" width="109.65625" height="36.5"/><text class="label"><tspan xml:space="preserve" text-anchor="middle" alignment-baseline="central">Save variables</tspan></text></g></g></g><g class="edges"/></g><g class="branch" transform="translate(129.65625,0)"><g class="nodes"><g class="node-container" transform="translate(80.234375,18.28125)"><g class="node state Task Succeeded"><rect class="shape" rx="5" ry="5" x="-80.234375" y="-18.28125" width="160.46875" height="36.5625"/><text class="label"><tspan xml:space="preserve" text-anchor="middle" alignment-baseline="central">Compare User Ratings</tspan></text></g></g></g><g class="edges"/></g></g><path class="path" marker-end="url(#arrowhead11)" d="M165.0625,0L165.06249999999997,3.333333333333333C165.0625,6.666666666666666,165.0625,13.333333333333332,150.02343749999997,16.666666666666664C134.984375,20,104.90625,20,89.8671875,23.33333333333333C74.828125,26.666666666666664,74.828125,33.33333333333333,74.828125,36.666666666666664L74.828125,40" style="fill: none;"/><path class="path" marker-end="url(#arrowhead12)" d="M165.0625,0L165.06249999999997,3.333333333333333C165.0625,6.666666666666666,165.0625,13.333333333333332,175.86718749999997,16.666666666666664C186.671875,20,208.28125,20,219.08593749999997,23.33333333333333C229.890625,26.666666666666664,229.890625,33.33333333333333,229.89062499999997,36.666666666666664L229.890625,40" style="fill: none;"/></g></g><g class="node-container" transform="translate(241.625,354.40625)"><g class="node state Parallel Container Succeeded" transform="translate(-241.625,-48.28125)"><rect class="shape" rx="19.3125" ry="19.3125" x="0" y="0" width="483.25" height="96.5625"/><g class="branches" transform="translate(20,40)"><g class="branch" transform="translate(0,0)"><g class="nodes"><g class="node-container" transform="translate(107.296875,18.28125)"><g class="node state Task Succeeded"><rect class="shape" rx="5" ry="5" x="-107.296875" y="-18.28125" width="214.59375" height="36.5625"/><text class="label"><tspan xml:space="preserve" text-anchor="middle" alignment-baseline="central">Caculate User Similarity Matrix</tspan></text></g></g></g><g class="edges"/></g><g class="branch" transform="translate(234.59375,0)"><g class="nodes"><g class="node-container" transform="translate(104.328125,18.28125)"><g class="node state Task Succeeded"><rect class="shape" rx="5" ry="5" x="-104.328125" y="-18.28125" width="208.65625" height="36.5625"/><text class="label"><tspan xml:space="preserve" text-anchor="middle" alignment-baseline="central">Calculate Movie Rating Matrix</tspan></text></g></g></g><g class="edges"/></g></g><path class="path" marker-end="url(#arrowhead13)" d="M241.625,0L241.62499999999994,3.333333333333333C241.62499999999997,6.666666666666666,241.62499999999997,13.333333333333332,222.57031249999997,16.666666666666664C203.51562499999997,20,165.40625,20,146.3515625,23.33333333333333C127.296875,26.666666666666664,127.296875,33.33333333333333,127.29687499999999,36.666666666666664L127.296875,40" style="fill: none;"/><path class="path" marker-end="url(#arrowhead14)" d="M241.625,0L241.62499999999994,3.333333333333333C241.62499999999997,6.666666666666666,241.62499999999997,13.333333333333332,261.17447916666663,16.666666666666664C280.7239583333333,20,319.82291666666663,20,339.3723958333333,23.33333333333333C358.921875,26.666666666666664,358.921875,33.33333333333333,358.921875,36.666666666666664L358.921875,40" style="fill: none;"/></g></g><g class="node-container" transform="translate(241.625,445.9375)"><g class="node state Task Succeeded"><rect class="shape" rx="5" ry="5" x="-96.984375" y="-18.25" width="193.96875" height="36.5"/><text class="label"><tspan xml:space="preserve" text-anchor="middle" alignment-baseline="central">Calculate Recommendation</tspan></text></g></g></g><g class="edges"><g class="edge"><path class="path" marker-end="url(#arrowhead15)" d="M241.625,98L241.62499999999994,100.08333333333331C241.62499999999997,102.16666666666666,241.62499999999997,106.33333333333331,241.62499999999994,110.49999999999999C241.62499999999997,114.66666666666666,241.62499999999997,118.83333333333333,241.62499999999994,120.91666666666666L241.625,123" style="fill: none;"/><defs><marker id="arrowhead15" viewBox="0 0 10 10" refX="9" refY="5" markerUnits="strokeWidth" markerWidth="8" markerHeight="6" orient="auto"><path d="M 0 0 L 10 5 L 0 10 z"/></marker></defs></g><g class="edge"><path class="path" marker-end="url(#arrowhead16)" d="M241.625,44.125L241.62499999999994,44.93749999999999C241.62499999999997,45.75,241.62499999999997,47.375,241.62499999999994,50.27083333333333C241.62499999999997,53.166666666666664,241.62499999999997,57.33333333333333,241.62499999999994,59.416666666666664L241.625,61.5" style="fill: none;"/><defs><marker id="arrowhead16" viewBox="0 0 10 10" refX="9" refY="5" markerUnits="strokeWidth" markerWidth="8" markerHeight="6" orient="auto"><path d="M 0 0 L 10 5 L 0 10 z"/></marker></defs></g><g class="edge"><path class="path" marker-end="url(#arrowhead17)" d="M241.625,159.5625L241.62499999999994,161.64583333333334C241.62499999999997,163.72916666666666,241.62499999999997,167.89583333333331,241.62499999999994,172.06249999999997C241.62499999999997,176.22916666666666,241.62499999999997,180.39583333333331,241.62499999999994,182.47916666666666L241.625,184.5625" style="fill: none;"/><defs><marker id="arrowhead17" viewBox="0 0 10 10" refX="9" refY="5" markerUnits="strokeWidth" markerWidth="8" markerHeight="6" orient="auto"><path d="M 0 0 L 10 5 L 0 10 z"/></marker></defs></g><g class="edge"><path class="path" marker-end="url(#arrowhead18)" d="M241.625,281.125L241.62499999999994,283.2083333333333C241.62499999999997,285.29166666666663,241.62499999999997,289.4583333333333,241.62499999999994,293.625C241.62499999999997,297.79166666666663,241.62499999999997,301.9583333333333,241.62499999999994,304.04166666666663L241.625,306.125" style="fill: none;"/><defs><marker id="arrowhead18" viewBox="0 0 10 10" refX="9" refY="5" markerUnits="strokeWidth" markerWidth="8" markerHeight="6" orient="auto"><path d="M 0 0 L 10 5 L 0 10 z"/></marker></defs></g><g class="edge"><path class="path" marker-end="url(#arrowhead19)" d="M241.625,402.6875L241.62499999999994,404.77083333333326C241.62499999999997,406.85416666666663,241.62499999999997,411.02083333333326,241.62499999999994,415.18749999999994C241.62499999999997,419.35416666666663,241.62499999999997,423.5208333333333,241.62499999999994,425.60416666666663L241.625,427.6875" style="fill: none;"/><defs><marker id="arrowhead19" viewBox="0 0 10 10" refX="9" refY="5" markerUnits="strokeWidth" markerWidth="8" markerHeight="6" orient="auto"><path d="M 0 0 L 10 5 L 0 10 z"/></marker></defs></g><g class="edge"><path class="path" marker-end="url(#arrowhead20)" d="M241.625,464.1875L241.62499999999994,466.27083333333326C241.62499999999997,468.35416666666663,241.62499999999997,472.52083333333326,241.62499999999994,476.03124999999994C241.62499999999997,479.54166666666663,241.62499999999997,482.3958333333333,241.62499999999994,483.82291666666663L241.625,485.25" style="fill: none;"/><defs><marker id="arrowhead20" viewBox="0 0 10 10" refX="9" refY="5" markerUnits="strokeWidth" markerWidth="8" markerHeight="6" orient="auto"><path d="M 0 0 L 10 5 L 0 10 z"/></marker></defs></g></g></g><style xmlns="http://www.w3.org/1999/xhtml">.node &gt; .shape {stroke: #555555;stroke-width: 0.6px;fill: #FFFFFF;} path {stroke: #555;background-color: #555;stroke-width: 1px;} .node.state.NotYetStarted &gt; .shape,.node.state.Container &gt; .shape {stroke-dasharray: 5 2;} .node.state.Failed &gt; .shape,rect.legend.Failed {fill: #DE322F;} .node.state.CaughtError &gt; .shape,rect.legend.CaughtError {fill: #FFA500;} .node.state.Succeeded &gt; .shape,rect.legend.Succeeded {fill: #2BD62E;} .node.state.InProgress &gt; .shape,rect.legend.InProgress {fill: #53c9ed;} .node.state.Cancelled &gt; .shape,rect.legend.Cancelled {fill: #dddddd;} .node.anchor &gt; .shape {fill: #FFDA75;} .node.state.hovered:not(.selected):not(.NotYetStarted) &gt; .shape,.node.selected &gt; .shape {stroke: #555555;stroke-width: 2px;} .node.state.Container.Failed &gt; .shape {fill: #EE9592;} .node.state.Container.CaughtError &gt; .shape {fill: #FFD27F;} .node.state.Container.Succeeded &gt; .shape {fill: #91EA9A;} .node.state.Container.InProgress &gt; .shape {fill :#A9E4F7;} .node.state.Container.Cancelled &gt; .shape {fill: #EEEEEE;} marker {fill: #555555;} .node.anchor,.node.state.NotYetStarted {cursor: default;} .node.state {cursor: pointer;} tspan .label {font-weight: normal;font-size: 12px;text-shadow: none;} </style></svg>